<svg xmlns="http://www.w3.org/2000/svg" viewBox="-16 -38 256 256" width="256" height="256" fill="none">
  <rect x="-16" y="-38" width="256" height="256" rx="56" fill="#0b0e13"/>
  <g stroke="#ffffff" stroke-width="11" stroke-linecap="round" stroke-linejoin="round">
    <path d="M48 20 H118 L150 52 V136 A24 24 0 0 1 126 160 H48 A24 24 0 0 1 24 136 V44 A24 24 0 0 1 48 20 Z"/>
    <path d="M118 20 V52 H150"/>
    <path d="M76 86 A20 20 0 1 0 76 110"/>
    <path d="M42 99 H78"/>
    <circle cx="122" cy="102" r="18"/>
    <path d="M140 52 V120"/>
  </g>
  <polyline points="84,106 96,88 104,118 112,88 120,104" stroke="#daff76" stroke-width="7" stroke-linecap="round" stroke-linejoin="round"/>
  <g fill="#daff76">
    <circle cx="84" cy="106" r="6.5"/>
    <circle cx="96" cy="88" r="6.5"/>
    <circle cx="104" cy="118" r="6.5"/>
    <circle cx="112" cy="88" r="6.5"/>
    <circle cx="120" cy="104" r="6.5"/>
  </g>
  <path d="M178 34 L206 54 M206 54 L188 82 M188 82 L178 34" stroke="#daff76" stroke-width="6" stroke-linecap="round" stroke-linejoin="round"/>
  <g fill="#daff76">
    <circle cx="178" cy="34" r="9"/>
    <circle cx="206" cy="54" r="9"/>
    <circle cx="188" cy="82" r="9"/>
  </g>
  <g stroke="#daff76" stroke-width="7" stroke-linecap="round" stroke-linejoin="round">
    <path d="M150 156 C188 158 208 142 208 104"/>
    <path d="M195 112 L208 98 L220 113"/>
  </g>
</svg>
